<svg width="14" height="14" viewBox="0 0 14 14" fill="none" xmlns="http://www.w3.org/2000/svg">
<path d="M13.4786 2.87158L11.0796 0.473581C10.7665 0.179979 10.3565 0.0116443 9.9275 0.000581938C9.49846 -0.0104804 9.08032 0.136501 8.75257 0.413581L0.878574 8.28658C0.595028 8.57194 0.418453 8.94628 0.378574 9.34658L0.00357433 12.9946C-0.00742966 13.116 0.00704113 13.2383 0.0460596 13.3537C0.085078 13.4692 0.147784 13.5752 0.230159 13.665C0.312534 13.7548 0.412761 13.8265 0.52442 13.8753C0.636079 13.9241 0.756707 13.9491 0.878574 13.9486H0.956574L4.60657 13.6156C5.00557 13.5756 5.37957 13.3996 5.66457 13.1166L13.5396 5.24158C13.8452 4.91872 14.0104 4.48789 13.9989 4.04348C13.9875 3.59906 13.8004 3.1773 13.4786 2.87058V2.87158ZM10.5036 5.79458L8.15858 3.44858L9.86457 1.69958L12.2536 4.08958L10.5036 5.79558V5.79458Z" fill="#5357B6"/>
</svg>
