<svg width="14" height="13" viewBox="0 0 14 13" fill="none" xmlns="http://www.w3.org/2000/svg">
<path d="M0.226725 4.69027L5.03972 0.534272C5.135 0.452467 5.25172 0.399679 5.37606 0.382159C5.50041 0.364639 5.62717 0.383121 5.74134 0.435416C5.8555 0.487712 5.95229 0.57163 6.02024 0.677233C6.08818 0.782835 6.12445 0.905698 6.12472 1.03127V3.22027C10.5167 3.27027 13.9997 4.15027 13.9997 8.31327C13.9997 9.99327 12.9177 11.6573 11.7207 12.5273C11.3477 12.7993 10.8157 12.4573 10.9537 12.0173C12.1937 8.05327 10.3657 7.00027 6.12472 6.93927V9.34327C6.12472 9.90927 5.46072 10.2033 5.03972 9.83927L0.226725 5.68427C0.155558 5.6226 0.0984811 5.54634 0.0593631 5.46068C0.0202451 5.37502 0 5.28194 0 5.18777C0 5.0936 0.0202451 5.00053 0.0593631 4.91486C0.0984811 4.8292 0.155558 4.75295 0.226725 4.69127V4.69027Z" fill="#5357B6"/>
</svg>
